<?xml version="1.0" encoding="iso-8859-1"?>
<!-- Generator: Adobe Illustrator 19.0.0, SVG Export Plug-In . SVG Version: 6.00 Build 0)  -->
<svg version="1.1" id="Capa_1" xmlns="http://www.w3.org/2000/svg" xmlns:xlink="http://www.w3.org/1999/xlink" x="0px" y="0px"
	 viewBox="0 0 512.002 512.002" style="enable-background:new 0 0 512.002 512.002;" xml:space="preserve">
<path style="fill:#FF7058;" d="M493.708,512.002H18.294l10.133-67.627c8.117-47.573,39.573-86.08,81.493-104.64
	c17.504-7.893,36.917-12.267,57.173-12.267h177.824c20.587,0,40.213,4.491,57.92,12.597c41.493,18.667,72.64,57.067,80.747,104.309
	L493.708,512.002z"/>
<g>
	<path style="fill:#F8B64C;" d="M402.838,340.087v3.744l-6.933,14.923c-10.357,22.517-32.213,50.027-64.107,68.267
		c-12.267,7.147-26.133,12.917-41.397,16.427l-8.309,2.027h-1.397c-7.563,1.269-15.253,2.016-22.923,2.123h-2.987
		c-77.227-1.589-123.083-56.64-138.016-88.853l-6.837-14.923v-4.053c8.853-3.947,18.144-7.04,27.84-9.163
		c5.227-1.077,10.56-1.931,16-2.357c4.373-0.544,8.853-0.747,13.333-0.747h177.813c4.491,0,8.971,0.213,13.333,0.651
		c5.451,0.533,10.784,1.269,16,2.56C384.172,332.738,393.761,335.949,402.838,340.087"/>
	<path style="fill:#F8B64C;" d="M328.15,295.927v31.52c0,0-15.904,34.357-54.635,43.339h-0.224
		c-5.184,1.269-10.923,2.08-16.992,2.187c-51.168-1.045-71.723-45.525-71.723-45.525V296.29
		c9.184,7.157,19.584,12.949,30.827,16.533c1.632,0.565,3.264,1.024,4.875,1.483c8.555,2.539,17.429,3.808,26.72,3.808h18.613
		C288.982,318.114,310.508,309.527,328.15,295.927"/>
</g>
<g style="opacity:0.1;">
	<g>
		<path style="fill:#40596B;" d="M402.838,340.087v3.744l-6.933,14.923c-10.357,22.517-32.213,50.027-64.107,68.267
			c-0.651,0.107-1.28,0.213-1.92,0.32l-96.747-99.84l-12.8-13.227c8.533,2.56,17.387,3.84,26.667,3.84h18.667
			c23.36,0,44.907-8.64,62.507-22.176L402.838,340.087z"/>
	</g>
</g>
<rect x="251.062" y="321.709" style="fill:#FFD15C;" width="0.032" height="0.043"/>
<path style="fill:#F2F2F2;" d="M374.252,330.711c-11.413,33.92-34.144,61.643-63.04,77.333
	c-16.651,9.067-35.413,14.187-55.147,14.187c-54.187,0-100.48-38.187-118.304-91.627c5.227-1.077,10.56-1.931,16-2.357
	c16.427,45.643,56.117,77.984,102.304,77.984c15.349,0,30.069-3.627,43.403-10.251c26.549-12.896,47.776-37.333,58.784-67.829
	C363.692,328.685,369.025,329.421,374.252,330.711"/>
<path style="fill:#40596B;" d="M352.833,245.858c0,0,52.565,57.899,39.435,93.973c-13.109,36.075-14.859,80.491-3.701,90.325
	c0,0-2.112,12.021-20.693-7.648c0,0-55.776-56.544-43.755-122.123C324.129,300.386,340.726,287.437,352.833,245.858"/>
<rect x="256.321" y="195.117" style="fill:#FFD15C;" width="0.032" height="0.043"/>
<g>
	<path style="fill:#F8B64C;" d="M165.292,188.909c4.224,18.144,1.995,34.187-5.003,35.808c-6.976,1.621-16.085-11.755-20.309-29.899
		c-4.235-18.155-2.005-34.187,4.992-35.819C151.958,157.367,161.057,170.765,165.292,188.909"/>
	<path style="fill:#F8B64C;" d="M347.212,188.909c-4.235,18.144-2.005,34.187,4.981,35.808c6.997,1.621,14.869-12.085,20.331-29.899
		c3.253-10.635,1.76-32.363-5.003-35.819C361.121,155.735,351.436,170.765,347.212,188.909"/>
</g>
<g style="opacity:0.1;">
	<g>
		<path style="fill:#40596B;" d="M374.252,330.711c-11.413,33.92-34.144,61.643-63.04,77.333l-11.744-12.064
			c26.549-12.896,47.776-37.333,58.784-67.829C363.692,328.685,369.025,329.421,374.252,330.711"/>
	</g>
</g>
<g style="opacity:0.1;">
	<path style="fill:#40596B;" d="M402.838,340.087v3.744l-6.933,14.923c-10.357,22.517-32.213,50.027-64.107,68.267
		c-0.651,0.107-1.28,0.213-1.92,0.32l-96.747-99.84l-12.8-13.227c8.533,2.56,17.387,3.84,26.667,3.84h18.667
		c23.36,0,44.907-8.64,62.507-22.176L402.838,340.087z"/>
</g>
<path style="fill:#FFD15C;" d="M356.417,241.655c-29.387,93.248-99.808,100.331-99.808,100.331s-70.421-7.083-99.797-100.331
	c0,0-15.723-48.64-2.528-89.173c0,0,8.064-69.163,102.336-69.163c94.283,0,102.357,69.163,102.357,69.163
	C372.15,193.015,356.417,241.655,356.417,241.655"/>
<path style="fill:#334A5E;" d="M364.225,205.741c4.021-27.381,10.432-45.621,9.728-64.139
	c-1.504-39.659-15.915-77.92-41.248-105.525C269.441-32.873,199.084,18.21,199.084,18.21
	c-102.176,73.941-50.037,183.819-50.037,183.819s1.397-15.648,11.499-33.973c0,0,13.227-0.608,28.779-11.392
	c8.096-5.621,14.944-12.309,17.056-19.669c0,0,9.557,9.483-13.472,23.392c0,0,21.909,5.685,54.443-35.392
	c0,0-1.109,19.584-19.648,29.696c0,0,37.899,5.92,62.315-45.931c0,0,36.501,83.221,66.251,70.581
	C356.268,179.341,362.998,214.05,364.225,205.741"/>
<g>
</g>
<g>
</g>
<g>
</g>
<g>
</g>
<g>
</g>
<g>
</g>
<g>
</g>
<g>
</g>
<g>
</g>
<g>
</g>
<g>
</g>
<g>
</g>
<g>
</g>
<g>
</g>
<g>
</g>
</svg>
